<svg xmlns="http://www.w3.org/2000/svg" width="1200" height="620" viewBox="0 0 1200 620">
  <rect width="1200" height="620" fill="#f7f3ed"/>
  <text x="70" y="70" font-family="Arial" font-size="30" font-weight="700" fill="#14213d">Visible AKS platform cost by environment</text>
  <text x="70" y="108" font-family="Arial" font-size="18" fill="#53606e">Monthly workbook detail: AKS plus directly related rows</text>
  <line x1="160" y1="510" x2="1080" y2="510" stroke="#53606e" stroke-width="2"/>
  <line x1="160" y1="170" x2="160" y2="510" stroke="#53606e" stroke-width="2"/>
  <text x="110" y="516" font-family="Arial" font-size="16" fill="#53606e">$0</text>
  <text x="84" y="346" font-family="Arial" font-size="16" fill="#53606e">$1,000</text>
  <text x="84" y="176" font-family="Arial" font-size="16" fill="#53606e">$2,000</text>
  <line x1="160" y1="340" x2="1080" y2="340" stroke="#d7d0c5"/>
  <line x1="160" y1="170" x2="1080" y2="170" stroke="#d7d0c5"/>
  <rect x="270" y="421" width="180" height="89" fill="#e07a5f"/>
  <rect x="510" y="333" width="180" height="177" fill="#3d9970"/>
  <rect x="750" y="165" width="180" height="345" fill="#e0a458"/>
  <text x="315" y="405" font-family="Arial" font-size="24" font-weight="700" fill="#14213d">$526</text>
  <text x="555" y="317" font-family="Arial" font-size="24" font-weight="700" fill="#14213d">$1,040</text>
  <text x="795" y="149" font-family="Arial" font-size="24" font-weight="700" fill="#14213d">$2,029</text>
  <text x="325" y="550" font-family="Arial" font-size="22" font-weight="700" fill="#14213d">QA</text>
  <text x="540" y="550" font-family="Arial" font-size="22" font-weight="700" fill="#14213d">PREPROD</text>
  <text x="810" y="550" font-family="Arial" font-size="22" font-weight="700" fill="#14213d">PROD</text>
  <text x="270" y="585" font-family="Arial" font-size="16" fill="#53606e">AKS + Cosmos + ACI</text>
  <text x="510" y="585" font-family="Arial" font-size="16" fill="#53606e">AKS + PostgreSQL + Cosmos</text>
  <text x="750" y="585" font-family="Arial" font-size="16" fill="#53606e">AKS + Cosmos</text>
</svg>